/* XPM */
static char * arghall_xpm[] = {
/* width height num_colors chars_per_pixel */
"24 24 2 1",
/* colors */
e" 	c #c8860b",
".	c #505050",
/* pixels */
"     .     .     .     .",
"     .     .     .     .",
"........................",
"  .     .     .     .   ",
"  .     .     .     .   ",
"........................",
"     .     .     .     .",
"     .     .     .     .",
"........................",
"  .     .     .     .   ",
"  .     .     .     .   ",
"........................",
"     .     .     .     .",
"     .     .     .     .",
"........................",
"  .     .     .     .   ",
"  .     .     .     .   ",
"........................",
"     .     .     .     .",
"     .     .     .     .",
"........................",
"  .     .     .     .   ",
"  .     .     .     .   ",
"........................"};
