/* XPM */
static char * bsboy_xpm[] = {
"24 24 9 1",
" 	c None",
".	c #000000",
"@	c #DEDC4E",
"#	c #F8B3F8",
"$	c #0059FF",
"%	c #A05400",
"&	c #505450",
"*	c #A0A8A0",
"=	c #A00000",
"........................",
"...........@@@..........",
"..........@@#@@.........",
"..........@$#$@.........",
"....%%....@#&#@.........",
"....%%.....@#&*.........",
"....%.....**$*$**.......",
"....%....****$****......",
"....%%..********&*......",
".....%.***&*****.**.....",
"....*%**&..*****.*......",
".....%.....&****.*......",
".....%%...%%%%%%**......",
".....%%...%=====........",
"......%....======.......",
"......%%...==..==.......",
"......%...%=...=%.......",
"......%...&=...%=.......",
"......%...==...==.......",
"......%%..==....==......",
".......%..**....**......",
"......%...**....**......",
".......%.***....**......",
"........................"};
