/* XPM */
static char * treasure_xpm[] = {
/* width height num_colors chars_per_pixel */
"24 24 9 1",
/* colors */
" 	c #000000",
".	c #a0a8a0",
"X	c #50fcf8",
"o	c #f8fc50",
"O	c #a05400",
"+	c #f8fcf8",
"@	c #5054f8",
"#	c #50fc50",
"$	c #f85450",
/* pixels */
"                        ",
"                        ",
"                        ",
"                        ",
"                        ",
"                        ",
"                        ",
"                        ",
"                        ",
"                        ",
"                        ",
"                        ",
"                        ",
"     .             X    ",
"    ...         X X     ",
"   .....         X      ",
"  ....oo.ooOo   + X     ",
" .....oOoOoOOo +        ",
"  ..o.oo@oOooO+         ",
"   .oOO@@@oOO+Oo        ",
" oooOooO@oOOoooOoo      ",
" OoOOOooOoooO#OoOoo $   ",
"ooooOoOooooO###OoOO$$$o ",
"OOOOooOoOOooo#OoOoOO$Ooo"};
